<svg version="1.1" xmlns="http://www.w3.org/2000/svg" xmlns:xlink="http://www.w3.org/1999/xlink" width="241.95272" height="230.15838" viewBox="0,0,241.95272,230.15838"><defs><linearGradient x1="70.92354" y1="119.72343" x2="157.93351" y2="119.72343" gradientUnits="userSpaceOnUse" id="color-1"><stop offset="0" stop-color="#ff0000"/><stop offset="1" stop-color="#00ff5e"/></linearGradient><linearGradient x1="78.64621" y1="206.05096" x2="147.60432" y2="206.05096" gradientUnits="userSpaceOnUse" id="color-2"><stop offset="0" stop-color="#ff0000"/><stop offset="1" stop-color="#00ff5e"/></linearGradient><linearGradient x1="78.86636" y1="267.86917" x2="110.63764" y2="267.86917" gradientUnits="userSpaceOnUse" id="color-3"><stop offset="0" stop-color="#ff0000"/><stop offset="1" stop-color="#00ff5e"/></linearGradient><linearGradient x1="115.99868" y1="268.53672" x2="147.76995" y2="268.53672" gradientUnits="userSpaceOnUse" id="color-4"><stop offset="0" stop-color="#ff0000"/><stop offset="1" stop-color="#00ff5e"/></linearGradient><linearGradient x1="17.2287" y1="125.77034" x2="51.88828" y2="125.77034" gradientUnits="userSpaceOnUse" id="color-5"><stop offset="0" stop-color="#ff0000"/><stop offset="1" stop-color="#00ff5e"/></linearGradient><linearGradient x1="196.53526" y1="202.05499" x2="231.19483" y2="202.05499" gradientUnits="userSpaceOnUse" id="color-6"><stop offset="0" stop-color="#ff0000"/><stop offset="1" stop-color="#00ff5e"/></linearGradient></defs><g transform="translate(-16.2287,-56.52761)"><g data-paper-data="{&quot;isPaintingLayer&quot;:true}" fill-rule="nonzero" stroke="#000000" stroke-width="2" stroke-linejoin="miter" stroke-miterlimit="10" stroke-dasharray="" stroke-dashoffset="0" style="mix-blend-mode: normal"><path d="M75.30213,77.78138v-20.25377h65.82476v20.25377z" fill="#ffde00" stroke-linecap="butt"/><path d="M70.92354,161.24271v-83.03856h87.00997v83.03856z" fill="url(#color-1)" stroke-linecap="butt"/><path d="M78.64621,250.27802v-88.45412h68.95811v88.45412z" fill="url(#color-2)" stroke-linecap="butt"/><path d="M78.86636,285.01843v-34.29854h31.77128v34.29854z" fill="url(#color-3)" stroke-linecap="butt"/><path d="M115.99868,285.68599v-34.29854h31.77128v34.29854z" fill="url(#color-4)" stroke-linecap="butt"/><path d="M17.2287,144.00272v-36.46476h34.65957v36.46476z" fill="url(#color-5)" stroke-linecap="butt"/><path d="M196.53526,220.28737v-36.46476h34.65957v36.46476z" fill="url(#color-6)" stroke-linecap="butt"/><path d="M93.47259,133.40353v-20.37504h28.94382v20.37504z" fill="#ff0000" stroke-linecap="butt"/><path d="M127.80026,133.97888v-28.74073h28.94382v28.74073z" fill="#00ff5e" stroke-linecap="butt"/><path d="M70.89914,88.12842v-15.41048h92.90318v15.41048z" fill="#ffde00" stroke-linecap="butt"/><path d="M118.67162,98.2553l-41.60829,0.22015" fill="none" stroke-linecap="round"/><path d="M53.72746,152.41213v-56.79862h18.49258v56.79862z" fill="#7f7f7f" stroke-linecap="butt"/><path d="M170.30178,182.0419v-40.61905h86.87964v40.61905z" fill="#000000" stroke-linecap="butt"/><path d="M115.87725,147.9064l-25.28587,2.59342" fill="none" stroke-linecap="round"/></g></g></svg>